<?xml version="1.0" encoding="UTF-8" standalone="no"?>
<!-- Created with Inkscape (http://www.inkscape.org/) -->

<svg
   width="535"
   height="535"
   viewBox="0 0 501.56251 501.56249"
   id="svg2"
   version="1.1"
   inkscape:version="1.4 (e7c3feb100, 2024-10-09)"
   sodipodi:docname="nixos-rebuild copy.svg"
   xml:space="preserve"
   xmlns:inkscape="http://www.inkscape.org/namespaces/inkscape"
   xmlns:sodipodi="http://sodipodi.sourceforge.net/DTD/sodipodi-0.dtd"
   xmlns="http://www.w3.org/2000/svg"
   xmlns:svg="http://www.w3.org/2000/svg"
   xmlns:rdf="http://www.w3.org/1999/02/22-rdf-syntax-ns#"
   xmlns:cc="http://creativecommons.org/ns#"
   xmlns:dc="http://purl.org/dc/elements/1.1/"><defs
     id="defs4"><clipPath
       id="clip0_1882_101"><rect
         width="14"
         height="14"
         fill="white"
         transform="translate(1 1)"
         id="rect1" /></clipPath></defs><sodipodi:namedview
     id="base"
     pagecolor="#ffffff"
     bordercolor="#666666"
     borderopacity="1.0"
     inkscape:pageopacity="0.0"
     inkscape:pageshadow="2"
     inkscape:zoom="1.1554899"
     inkscape:cx="250.9758"
     inkscape:cy="321.94137"
     inkscape:document-units="px"
     inkscape:current-layer="layer3"
     showgrid="false"
     inkscape:window-width="1920"
     inkscape:window-height="1011"
     inkscape:window-x="0"
     inkscape:window-y="0"
     inkscape:window-maximized="1"
     inkscape:snap-global="true"
     fit-margin-top="0"
     fit-margin-left="0"
     fit-margin-right="0"
     fit-margin-bottom="0"
     inkscape:showpageshadow="2"
     inkscape:pagecheckerboard="0"
     inkscape:deskcolor="#d1d1d1" /><metadata
     id="metadata7"><rdf:RDF><cc:Work
         rdf:about=""><dc:format>image/svg+xml</dc:format><dc:type
           rdf:resource="http://purl.org/dc/dcmitype/StillImage" /></cc:Work></rdf:RDF></metadata><g
     inkscape:groupmode="layer"
     id="layer3"
     inkscape:label="gradient-logo"
     style="display:inline;opacity:1"
     transform="translate(-156.41121,933.30685)"><g
       style="fill:#000000"
       id="g1"
       transform="matrix(14.941982,0,0,14.941982,233.04493,-864.92698)"><path
         d="M 11.707,5.293 A 1,1 0 0 1 11,7 H 4 v 10 h 5 a 1,1 0 0 1 0,2 H 3 A 1,1 0 0 1 2,18 V 6 A 1,1 0 0 1 3,5 H 8.586 L 7.293,3.707 A 1,1 0 1 1 8.707,2.293 Z M 21,5 h -6 a 1,1 0 0 0 0,2 h 5 v 10 h -7 a 1,1 0 0 0 -0.707,1.707 l 3,3 a 1,1 0 0 0 1.414,-1.414 L 15.414,19 H 21 a 1,1 0 0 0 1,-1 V 6 A 1,1 0 0 0 21,5 Z"
         id="path1" /></g><g
       style="fill:none;stroke:#000000;stroke-opacity:1"
       id="g6"
       transform="matrix(5.3624603,0,0,5.3624603,347.06169,-747.21255)"><path
         d="M 22,22 H 2"
         stroke="#1c274c"
         stroke-width="1.5"
         stroke-linecap="round"
         id="path1-3"
         style="stroke:#000000;stroke-opacity:1" /><path
         d="M 2,11 6.06296,7.74968 M 22,11 13.8741,4.49931 c -1.0957,-0.87652 -2.6525,-0.87652 -3.7482,0 L 9.34398,5.12486"
         stroke="#1c274c"
         stroke-width="1.5"
         stroke-linecap="round"
         id="path2"
         style="stroke:#000000;stroke-opacity:1" /><path
         d="m 15.5,5.5 v -2 C 15.5,3.22386 15.7239,3 16,3 h 2.5 C 18.7761,3 19,3.22386 19,3.5 v 5"
         stroke="#1c274c"
         stroke-width="1.5"
         stroke-linecap="round"
         id="path3"
         style="stroke:#000000;stroke-opacity:1" /><path
         d="M 4,22 V 9.5"
         stroke="#1c274c"
         stroke-width="1.5"
         stroke-linecap="round"
         id="path4"
         style="stroke:#000000;stroke-opacity:1" /><path
         d="m 20,9.5 v 4 m 0,8.5 v -4.5"
         stroke="#1c274c"
         stroke-width="1.5"
         stroke-linecap="round"
         id="path5"
         style="stroke:#000000;stroke-opacity:1" /><path
         d="M 15,22 V 17 C 15,15.5858 15,14.8787 14.5607,14.4393 14.1213,14 13.4142,14 12,14 10.5858,14 9.87868,14 9.43934,14.4393 M 9,22 v -5"
         stroke="#1c274c"
         stroke-width="1.5"
         stroke-linecap="round"
         stroke-linejoin="round"
         id="path6"
         style="stroke:#000000;stroke-opacity:1" /><path
         d="m 14,9.5 c 0,1.1046 -0.8954,2 -2,2 -1.1046,0 -2,-0.8954 -2,-2 0,-1.10457 0.8954,-2 2,-2 1.1046,0 2,0.89543 2,2 z"
         stroke="#1c274c"
         stroke-width="1.5"
         id="path7"
         style="stroke:#000000;stroke-opacity:1" /></g></g></svg>
