<?xml version="1.0" encoding="UTF-8" standalone="no"?>
<!-- Created with Inkscape (http://www.inkscape.org/) -->

<svg
   width="535"
   height="535"
   viewBox="0 0 501.56251 501.56249"
   id="svg2"
   version="1.1"
   xml:space="preserve"
   xmlns:xlink="http://www.w3.org/1999/xlink"
   xmlns="http://www.w3.org/2000/svg"
   xmlns:svg="http://www.w3.org/2000/svg"
   xmlns:rdf="http://www.w3.org/1999/02/22-rdf-syntax-ns#"
   xmlns:cc="http://creativecommons.org/ns#"
   xmlns:dc="http://purl.org/dc/elements/1.1/"><defs
     id="defs4"><linearGradient
       id="linearGradient5562"><stop
         style="stop-color:#699ad7;stop-opacity:1"
         offset="0"
         id="stop5564" /><stop
         id="stop5566"
         offset="0.24345198"
         style="stop-color:#7eb1dd;stop-opacity:1" /><stop
         style="stop-color:#7ebae4;stop-opacity:1"
         offset="1"
         id="stop5568" /></linearGradient><linearGradient
       id="linearGradient5053"><stop
         style="stop-color:#415e9a;stop-opacity:1"
         offset="0"
         id="stop5055" /><stop
         id="stop5057"
         offset="0.23168644"
         style="stop-color:#4a6baf;stop-opacity:1" /><stop
         style="stop-color:#5277c3;stop-opacity:1"
         offset="1"
         id="stop5059" /></linearGradient><linearGradient
       xlink:href="#linearGradient5562"
       id="linearGradient4328"
       gradientUnits="userSpaceOnUse"
       gradientTransform="translate(70.650339,-1055.1511)"
       x1="200.59668"
       y1="351.41116"
       x2="290.08701"
       y2="506.18814" /><linearGradient
       xlink:href="#linearGradient5053"
       id="linearGradient4330"
       gradientUnits="userSpaceOnUse"
       gradientTransform="translate(864.69589,-1491.3405)"
       x1="-584.19934"
       y1="782.33563"
       x2="-496.29703"
       y2="937.71399" /></defs><metadata
     id="metadata7"><rdf:RDF><cc:Work
         rdf:about=""><dc:format>image/svg+xml</dc:format><dc:type
           rdf:resource="http://purl.org/dc/dcmitype/StillImage" /></cc:Work></rdf:RDF></metadata><g
     id="layer3"
     style="display:inline;opacity:1"
     transform="translate(-156.41121,933.30685)"><g
       id="g2"
       transform="matrix(0.99994059,0,0,0.99994059,-0.06321798,33.188377)"
       style="stroke-width:1.00006"><path
         id="path3336-6"
         d="m 309.54892,-710.38827 122.19683,211.67512 -56.15706,0.5268 -32.6236,-56.8692 -32.85645,56.5653 -27.90237,-0.011 -14.29086,-24.6896 46.81047,-80.4901 -33.22946,-57.8257 z"
         style="opacity:1;fill:url(#linearGradient4328);fill-opacity:1;fill-rule:evenodd;stroke:none;stroke-width:3.00018;stroke-linecap:butt;stroke-linejoin:round;stroke-miterlimit:4;stroke-dasharray:none;stroke-opacity:1" /><use
         height="100%"
         width="100%"
         transform="rotate(60,407.11155,-715.78724)"
         id="use3439-6"
         xlink:href="#path3336-6"
         y="0"
         x="0"
         style="stroke-width:1.00006" /><use
         height="100%"
         width="100%"
         transform="rotate(-60,407.31177,-715.70016)"
         id="use3445-0"
         xlink:href="#path3336-6"
         y="0"
         x="0"
         style="stroke-width:1.00006" /><use
         height="100%"
         width="100%"
         transform="rotate(180,407.41868,-715.7565)"
         id="use3449-5"
         xlink:href="#path3336-6"
         y="0"
         x="0"
         style="stroke-width:1.00006" /><path
         style="color:#000000;clip-rule:nonzero;display:inline;overflow:visible;visibility:visible;opacity:1;isolation:auto;mix-blend-mode:normal;color-interpolation:sRGB;color-interpolation-filters:linearRGB;solid-color:#000000;solid-opacity:1;fill:url(#linearGradient4330);fill-opacity:1;fill-rule:evenodd;stroke:none;stroke-width:3.00018;stroke-linecap:butt;stroke-linejoin:round;stroke-miterlimit:4;stroke-dasharray:none;stroke-dashoffset:0;stroke-opacity:1;color-rendering:auto;image-rendering:auto;shape-rendering:auto;text-rendering:auto;enable-background:accumulate"
         d="m 309.54892,-710.38827 122.19683,211.67512 -56.15706,0.5268 -32.6236,-56.8692 -32.85645,56.5653 -27.90237,-0.011 -14.29086,-24.6896 46.81047,-80.4901 -33.22946,-57.8256 z"
         id="path4260-0" /><use
         height="100%"
         width="100%"
         transform="rotate(120,407.33916,-716.08356)"
         id="use4354-5"
         xlink:href="#path4260-0"
         y="0"
         x="0"
         style="display:inline;stroke-width:1.00006" /><use
         height="100%"
         width="100%"
         transform="rotate(-120,407.28823,-715.86995)"
         id="use4362-2"
         xlink:href="#path4260-0"
         y="0"
         x="0"
         style="display:inline;stroke-width:1.00006" /></g><g
       style="fill:none"
       id="g1"
       transform="matrix(6.2691964,0,0,6.2691903,357.03889,-735.29854)"><path
         fill-rule="evenodd"
         clip-rule="evenodd"
         d="M 2.3125,1.875 C 2.07088,1.875 1.875,2.07088 1.875,2.3125 v 9.625 H 1 V 2.3125 C 1,1.58763 1.58763,1 2.3125,1 h 11.7219 c 0.5847,0 0.8774,0.70688 0.464,1.12029 L 7.27887,9.33984 H 9.3125 V 8.4375 h 0.875 v 1.12109 c 0,0.36244 -0.29381,0.65621 -0.65625,0.65621 H 6.40387 L 4.89996,11.7187 H 11.7187 V 6.25 h 0.875 v 5.4687 c 0,0.4833 -0.3917,0.875 -0.875,0.875 H 4.02496 L 2.49371,14.125 H 13.6875 c 0.2416,0 0.4375,-0.1959 0.4375,-0.4375 V 4.0625 H 15 v 9.625 C 15,14.4124 14.4124,15 13.6875,15 H 1.96561 C 1.38095,15 1.08816,14.2931 1.50157,13.8797 L 8.69379,6.6875 H 6.6875 v 0.875 H 5.8125 V 6.46875 C 5.8125,6.10631 6.10631,5.8125 6.46875,5.8125 H 9.56879 L 11.1,4.28125 H 4.28125 V 9.75 h -0.875 V 4.28125 c 0,-0.48325 0.39175,-0.875 0.875,-0.875 H 11.975 L 13.5063,1.875 Z"
         fill="#000000"
         id="path1" /></g></g></svg>
